<svg xmlns="http://www.w3.org/2000/svg" xmlns:xlink="http://www.w3.org/1999/xlink" width="500" zoomAndPan="magnify" viewBox="0 0 375 374.999991" height="500" preserveAspectRatio="xMidYMid meet" version="1.0"><defs><clipPath id="f60ac2d641"><path d="M 11.066406 134.347656 L 363.566406 134.347656 L 363.566406 240.847656 L 11.066406 240.847656 Z M 11.066406 134.347656 " clip-rule="nonzero"/></clipPath><clipPath id="c83e1ae032"><path d="M 31.601562 134.386719 L 343.03125 134.386719 C 343.703125 134.386719 344.375 134.417969 345.042969 134.484375 C 345.714844 134.550781 346.378906 134.648438 347.039062 134.78125 C 347.695312 134.910156 348.347656 135.074219 348.992188 135.269531 C 349.636719 135.46875 350.265625 135.695312 350.890625 135.953125 C 351.511719 136.210938 352.117188 136.5 352.710938 136.816406 C 353.304688 137.132812 353.878906 137.480469 354.4375 137.855469 C 354.996094 138.230469 355.535156 138.628906 356.054688 139.058594 C 356.578125 139.488281 357.074219 139.9375 357.550781 140.414062 C 358.023438 140.890625 358.476562 141.390625 358.902344 141.914062 C 359.328125 142.433594 359.730469 142.976562 360.101562 143.535156 C 360.476562 144.097656 360.820312 144.675781 361.136719 145.269531 C 361.457031 145.863281 361.742188 146.472656 362 147.09375 C 362.257812 147.71875 362.484375 148.351562 362.679688 149 C 362.875 149.644531 363.035156 150.296875 363.167969 150.957031 C 363.300781 151.621094 363.398438 152.285156 363.464844 152.957031 C 363.53125 153.628906 363.5625 154.300781 363.5625 154.976562 L 363.5625 220.246094 C 363.5625 220.917969 363.53125 221.589844 363.464844 222.261719 C 363.398438 222.933594 363.300781 223.601562 363.167969 224.261719 C 363.035156 224.921875 362.875 225.574219 362.679688 226.222656 C 362.484375 226.867188 362.257812 227.5 362 228.125 C 361.742188 228.746094 361.457031 229.355469 361.136719 229.949219 C 360.820312 230.546875 360.476562 231.121094 360.101562 231.683594 C 359.730469 232.246094 359.328125 232.785156 358.902344 233.304688 C 358.476562 233.828125 358.023438 234.328125 357.550781 234.804688 C 357.074219 235.28125 356.578125 235.734375 356.054688 236.160156 C 355.535156 236.589844 354.996094 236.988281 354.4375 237.363281 C 353.878906 237.738281 353.304688 238.085938 352.710938 238.402344 C 352.117188 238.722656 351.511719 239.007812 350.890625 239.265625 C 350.265625 239.523438 349.636719 239.753906 348.992188 239.949219 C 348.347656 240.144531 347.695312 240.308594 347.039062 240.4375 C 346.378906 240.570312 345.714844 240.667969 345.042969 240.734375 C 344.375 240.800781 343.703125 240.835938 343.03125 240.835938 L 31.601562 240.835938 C 30.925781 240.835938 30.257812 240.800781 29.585938 240.734375 C 28.917969 240.667969 28.253906 240.570312 27.59375 240.4375 C 26.933594 240.308594 26.285156 240.144531 25.640625 239.949219 C 24.996094 239.753906 24.363281 239.523438 23.742188 239.265625 C 23.121094 239.007812 22.515625 238.722656 21.921875 238.402344 C 21.328125 238.085938 20.753906 237.738281 20.195312 237.363281 C 19.632812 236.988281 19.09375 236.589844 18.574219 236.160156 C 18.054688 235.734375 17.558594 235.28125 17.082031 234.804688 C 16.605469 234.328125 16.15625 233.828125 15.730469 233.304688 C 15.300781 232.785156 14.902344 232.246094 14.527344 231.683594 C 14.15625 231.121094 13.808594 230.546875 13.492188 229.949219 C 13.175781 229.355469 12.890625 228.746094 12.632812 228.125 C 12.375 227.5 12.148438 226.867188 11.953125 226.222656 C 11.757812 225.574219 11.59375 224.921875 11.464844 224.261719 C 11.332031 223.601562 11.234375 222.933594 11.167969 222.261719 C 11.101562 221.589844 11.070312 220.917969 11.070312 220.246094 L 11.070312 154.976562 C 11.070312 154.300781 11.101562 153.628906 11.167969 152.957031 C 11.234375 152.285156 11.332031 151.621094 11.464844 150.957031 C 11.59375 150.296875 11.757812 149.644531 11.953125 149 C 12.148438 148.351562 12.375 147.71875 12.632812 147.09375 C 12.890625 146.472656 13.175781 145.863281 13.492188 145.269531 C 13.808594 144.675781 14.15625 144.097656 14.527344 143.535156 C 14.902344 142.976562 15.300781 142.433594 15.730469 141.914062 C 16.15625 141.390625 16.605469 140.890625 17.082031 140.414062 C 17.558594 139.9375 18.054688 139.488281 18.574219 139.058594 C 19.09375 138.628906 19.632812 138.230469 20.195312 137.855469 C 20.753906 137.480469 21.328125 137.132812 21.921875 136.816406 C 22.515625 136.5 23.121094 136.210938 23.742188 135.953125 C 24.363281 135.695312 24.996094 135.46875 25.640625 135.269531 C 26.285156 135.074219 26.933594 134.910156 27.59375 134.78125 C 28.253906 134.648438 28.917969 134.550781 29.585938 134.484375 C 30.257812 134.417969 30.925781 134.386719 31.601562 134.386719 Z M 31.601562 134.386719 " clip-rule="nonzero"/></clipPath><linearGradient x1="164.214992" gradientTransform="matrix(0.210876, 0, 0, 0.211489, -23.559918, -23.878929)" y1="1000" x2="1835.784968" gradientUnits="userSpaceOnUse" y2="1000" id="7a71b29eed"><stop stop-opacity="1" stop-color="rgb(86.698914%, 17.298889%, 32.199097%)" offset="0"/><stop stop-opacity="1" stop-color="rgb(86.790466%, 17.420959%, 32.293701%)" offset="0.015625"/><stop stop-opacity="1" stop-color="rgb(86.973572%, 17.6651%, 32.48291%)" offset="0.03125"/><stop stop-opacity="1" stop-color="rgb(87.156677%, 17.907715%, 32.672119%)" offset="0.046875"/><stop stop-opacity="1" stop-color="rgb(87.338257%, 18.151855%, 32.861328%)" offset="0.0625"/><stop stop-opacity="1" stop-color="rgb(87.521362%, 18.395996%, 33.050537%)" offset="0.078125"/><stop stop-opacity="1" stop-color="rgb(87.704468%, 18.640137%, 33.239746%)" offset="0.09375"/><stop stop-opacity="1" stop-color="rgb(87.887573%, 18.882751%, 33.427429%)" offset="0.109375"/><stop stop-opacity="1" stop-color="rgb(88.070679%, 19.126892%, 33.616638%)" offset="0.125"/><stop stop-opacity="1" stop-color="rgb(88.252258%, 19.371033%, 33.805847%)" offset="0.140625"/><stop stop-opacity="1" stop-color="rgb(88.435364%, 19.615173%, 33.995056%)" offset="0.15625"/><stop stop-opacity="1" stop-color="rgb(88.618469%, 19.857788%, 34.184265%)" offset="0.171875"/><stop stop-opacity="1" stop-color="rgb(88.801575%, 20.101929%, 34.373474%)" offset="0.1875"/><stop stop-opacity="1" stop-color="rgb(88.98468%, 20.346069%, 34.562683%)" offset="0.203125"/><stop stop-opacity="1" stop-color="rgb(89.167786%, 20.59021%, 34.751892%)" offset="0.21875"/><stop stop-opacity="1" stop-color="rgb(89.349365%, 20.832825%, 34.941101%)" offset="0.234375"/><stop stop-opacity="1" stop-color="rgb(89.532471%, 21.076965%, 35.13031%)" offset="0.25"/><stop stop-opacity="1" stop-color="rgb(89.715576%, 21.321106%, 35.317993%)" offset="0.265625"/><stop stop-opacity="1" stop-color="rgb(89.898682%, 21.565247%, 35.507202%)" offset="0.28125"/><stop stop-opacity="1" stop-color="rgb(90.081787%, 21.807861%, 35.696411%)" offset="0.296875"/><stop stop-opacity="1" stop-color="rgb(90.263367%, 22.052002%, 35.88562%)" offset="0.3125"/><stop stop-opacity="1" stop-color="rgb(90.446472%, 22.296143%, 36.074829%)" offset="0.328125"/><stop stop-opacity="1" stop-color="rgb(90.629578%, 22.540283%, 36.264038%)" offset="0.34375"/><stop stop-opacity="1" stop-color="rgb(90.812683%, 22.782898%, 36.453247%)" offset="0.359375"/><stop stop-opacity="1" stop-color="rgb(90.995789%, 23.027039%, 36.642456%)" offset="0.375"/><stop stop-opacity="1" stop-color="rgb(91.177368%, 23.271179%, 36.831665%)" offset="0.390625"/><stop stop-opacity="1" stop-color="rgb(91.360474%, 23.51532%, 37.020874%)" offset="0.40625"/><stop stop-opacity="1" stop-color="rgb(91.543579%, 23.757935%, 37.208557%)" offset="0.421875"/><stop stop-opacity="1" stop-color="rgb(91.726685%, 24.002075%, 37.397766%)" offset="0.4375"/><stop stop-opacity="1" stop-color="rgb(91.90979%, 24.246216%, 37.586975%)" offset="0.453125"/><stop stop-opacity="1" stop-color="rgb(92.09137%, 24.490356%, 37.776184%)" offset="0.46875"/><stop stop-opacity="1" stop-color="rgb(92.274475%, 24.732971%, 37.965393%)" offset="0.484375"/><stop stop-opacity="1" stop-color="rgb(92.457581%, 24.977112%, 38.154602%)" offset="0.5"/><stop stop-opacity="1" stop-color="rgb(92.640686%, 25.221252%, 38.343811%)" offset="0.515625"/><stop stop-opacity="1" stop-color="rgb(92.823792%, 25.465393%, 38.53302%)" offset="0.53125"/><stop stop-opacity="1" stop-color="rgb(93.005371%, 25.708008%, 38.722229%)" offset="0.546875"/><stop stop-opacity="1" stop-color="rgb(93.188477%, 25.952148%, 38.911438%)" offset="0.5625"/><stop stop-opacity="1" stop-color="rgb(93.371582%, 26.196289%, 39.100647%)" offset="0.578125"/><stop stop-opacity="1" stop-color="rgb(93.554688%, 26.438904%, 39.28833%)" offset="0.59375"/><stop stop-opacity="1" stop-color="rgb(93.737793%, 26.683044%, 39.477539%)" offset="0.609375"/><stop stop-opacity="1" stop-color="rgb(93.920898%, 26.927185%, 39.666748%)" offset="0.625"/><stop stop-opacity="1" stop-color="rgb(94.102478%, 27.171326%, 39.855957%)" offset="0.640625"/><stop stop-opacity="1" stop-color="rgb(94.285583%, 27.41394%, 40.045166%)" offset="0.65625"/><stop stop-opacity="1" stop-color="rgb(94.468689%, 27.658081%, 40.234375%)" offset="0.671875"/><stop stop-opacity="1" stop-color="rgb(94.651794%, 27.902222%, 40.423584%)" offset="0.6875"/><stop stop-opacity="1" stop-color="rgb(94.8349%, 28.146362%, 40.612793%)" offset="0.703125"/><stop stop-opacity="1" stop-color="rgb(95.016479%, 28.388977%, 40.802002%)" offset="0.71875"/><stop stop-opacity="1" stop-color="rgb(95.199585%, 28.633118%, 40.991211%)" offset="0.734375"/><stop stop-opacity="1" stop-color="rgb(95.38269%, 28.877258%, 41.178894%)" offset="0.75"/><stop stop-opacity="1" stop-color="rgb(95.565796%, 29.121399%, 41.368103%)" offset="0.765625"/><stop stop-opacity="1" stop-color="rgb(95.748901%, 29.364014%, 41.557312%)" offset="0.78125"/><stop stop-opacity="1" stop-color="rgb(95.930481%, 29.608154%, 41.746521%)" offset="0.796875"/><stop stop-opacity="1" stop-color="rgb(96.113586%, 29.852295%, 41.93573%)" offset="0.8125"/><stop stop-opacity="1" stop-color="rgb(96.296692%, 30.096436%, 42.124939%)" offset="0.828125"/><stop stop-opacity="1" stop-color="rgb(96.479797%, 30.33905%, 42.314148%)" offset="0.84375"/><stop stop-opacity="1" stop-color="rgb(96.662903%, 30.583191%, 42.503357%)" offset="0.859375"/><stop stop-opacity="1" stop-color="rgb(96.844482%, 30.827332%, 42.692566%)" offset="0.875"/><stop stop-opacity="1" stop-color="rgb(97.027588%, 31.071472%, 42.881775%)" offset="0.890625"/><stop stop-opacity="1" stop-color="rgb(97.210693%, 31.314087%, 43.070984%)" offset="0.90625"/><stop stop-opacity="1" stop-color="rgb(97.393799%, 31.558228%, 43.258667%)" offset="0.921875"/><stop stop-opacity="1" stop-color="rgb(97.576904%, 31.802368%, 43.447876%)" offset="0.9375"/><stop stop-opacity="1" stop-color="rgb(97.758484%, 32.046509%, 43.637085%)" offset="0.953125"/><stop stop-opacity="1" stop-color="rgb(97.941589%, 32.289124%, 43.826294%)" offset="0.96875"/><stop stop-opacity="1" stop-color="rgb(98.124695%, 32.533264%, 44.015503%)" offset="0.984375"/><stop stop-opacity="1" stop-color="rgb(98.3078%, 32.777405%, 44.204712%)" offset="1"/></linearGradient></defs><g clip-path="url(#f60ac2d641)"><g clip-path="url(#c83e1ae032)"><path fill="url(#7a71b29eed)" d="M 11.070312 134.386719 L 11.070312 240.835938 L 363.5625 240.835938 L 363.5625 134.386719 Z M 11.070312 134.386719 " fill-rule="nonzero"/></g></g><path fill="#ffffff" d="M 48.613281 203.839844 L 48.613281 171.378906 L 58.574219 171.378906 C 61.417969 171.378906 63.964844 172.019531 66.210938 173.308594 C 68.5 174.617188 70.253906 176.445312 71.46875 178.789062 C 72.726562 181.160156 73.359375 183.855469 73.359375 186.875 L 73.359375 188.367188 C 73.359375 191.382812 72.738281 194.066406 71.503906 196.414062 C 70.292969 198.753906 68.550781 200.578125 66.265625 201.878906 C 64.011719 203.171875 61.472656 203.824219 58.640625 203.839844 Z M 55.285156 176.796875 L 55.285156 198.46875 L 58.507812 198.46875 C 61.117188 198.46875 63.109375 197.613281 64.488281 195.902344 C 65.867188 194.195312 66.570312 191.75 66.597656 188.570312 L 66.597656 186.851562 C 66.597656 183.550781 65.917969 181.050781 64.554688 179.347656 C 63.191406 177.644531 61.195312 176.796875 58.574219 176.796875 Z M 55.285156 176.796875 " fill-opacity="1" fill-rule="nonzero"/><path fill="#ffffff" d="M 107.070312 188.34375 C 107.070312 191.542969 106.507812 194.34375 105.378906 196.75 C 104.253906 199.160156 102.640625 201.015625 100.546875 202.324219 C 98.449219 203.632812 96.042969 204.289062 93.332031 204.289062 C 90.648438 204.289062 88.253906 203.640625 86.148438 202.347656 C 84.046875 201.054688 82.414062 199.207031 81.257812 196.804688 C 80.101562 194.40625 79.519531 191.644531 79.503906 188.523438 L 79.503906 186.917969 C 79.503906 183.722656 80.078125 180.910156 81.226562 178.480469 C 82.375 176.050781 83.996094 174.183594 86.09375 172.882812 C 88.191406 171.582031 90.589844 170.933594 93.285156 170.933594 C 95.984375 170.933594 98.382812 171.582031 100.476562 172.882812 C 102.574219 174.183594 104.199219 176.050781 105.347656 178.480469 C 106.496094 180.910156 107.070312 183.714844 107.070312 186.898438 Z M 100.3125 186.875 C 100.3125 183.46875 99.703125 180.882812 98.488281 179.113281 C 97.273438 177.347656 95.539062 176.460938 93.285156 176.460938 C 91.046875 176.460938 89.320312 177.335938 88.105469 179.082031 C 86.890625 180.828125 86.277344 183.386719 86.261719 186.761719 L 86.261719 188.34375 C 86.261719 191.660156 86.867188 194.230469 88.085938 196.058594 C 89.300781 197.886719 91.046875 198.800781 93.332031 198.804688 C 95.570312 198.804688 97.289062 197.921875 98.488281 196.160156 C 99.691406 194.398438 100.296875 191.832031 100.3125 188.457031 Z M 100.3125 186.875 " fill-opacity="1" fill-rule="nonzero"/><path fill="#ffffff" d="M 140.515625 203.839844 L 133.847656 203.839844 L 120.863281 182.480469 L 120.863281 203.839844 L 114.191406 203.839844 L 114.191406 171.378906 L 120.863281 171.378906 L 133.867188 192.78125 L 133.867188 171.378906 L 140.515625 171.378906 Z M 140.515625 203.839844 " fill-opacity="1" fill-rule="nonzero"/><path fill="#ffffff" d="M 167.292969 197.152344 L 155.597656 197.152344 L 153.375 203.839844 L 146.28125 203.839844 L 158.332031 171.378906 L 164.511719 171.378906 L 176.628906 203.839844 L 169.539062 203.839844 Z M 157.398438 191.734375 L 165.492188 191.734375 L 161.421875 179.582031 Z M 157.398438 191.734375 " fill-opacity="1" fill-rule="nonzero"/><path fill="#ffffff" d="M 203.628906 176.796875 L 193.710938 176.796875 L 193.710938 203.839844 L 187.042969 203.839844 L 187.042969 176.796875 L 177.261719 176.796875 L 177.261719 171.378906 L 203.628906 171.378906 Z M 203.628906 176.796875 " fill-opacity="1" fill-rule="nonzero"/><path fill="#ffffff" d="M 229.179688 189.726562 L 216.375 189.726562 L 216.375 198.46875 L 231.402344 198.46875 L 231.402344 203.839844 L 209.703125 203.839844 L 209.703125 171.378906 L 231.359375 171.378906 L 231.359375 176.796875 L 216.375 176.796875 L 216.375 184.53125 L 229.179688 184.53125 Z M 229.179688 189.726562 " fill-opacity="1" fill-rule="nonzero"/><path fill="#ffffff" d="M 261.660156 154.042969 L 262.292969 154.042969 L 262.292969 221.175781 L 261.660156 221.175781 Z M 261.660156 154.042969 " fill-opacity="1" fill-rule="nonzero"/><path fill="#ffffff" d="M 316.519531 170.449219 L 312.460938 174.523438 C 312.167969 174.816406 311.816406 174.960938 311.402344 174.960938 C 310.992188 174.960938 310.640625 174.816406 310.347656 174.523438 L 306.289062 170.449219 C 305.753906 169.917969 305.175781 169.4375 304.550781 169.019531 C 303.921875 168.601562 303.261719 168.246094 302.566406 167.957031 C 301.867188 167.667969 301.152344 167.449219 300.414062 167.300781 C 299.671875 167.152344 298.925781 167.078125 298.171875 167.078125 C 297.417969 167.078125 296.671875 167.152344 295.933594 167.300781 C 295.195312 167.449219 294.476562 167.667969 293.78125 167.957031 C 293.085938 168.246094 292.425781 168.601562 291.796875 169.019531 C 291.171875 169.4375 290.589844 169.917969 290.058594 170.449219 C 289.527344 170.984375 289.050781 171.566406 288.632812 172.195312 C 288.214844 172.824219 287.859375 173.488281 287.570312 174.183594 C 287.28125 174.882812 287.066406 175.601562 286.917969 176.34375 C 286.769531 177.085938 286.699219 177.832031 286.699219 178.589844 C 286.699219 179.34375 286.769531 180.09375 286.917969 180.835938 C 287.066406 181.574219 287.28125 182.296875 287.570312 182.992188 C 287.859375 183.691406 288.214844 184.355469 288.632812 184.984375 C 289.050781 185.613281 289.527344 186.191406 290.058594 186.726562 L 311.402344 208.132812 L 332.75 186.726562 C 333.28125 186.191406 333.757812 185.613281 334.175781 184.984375 C 334.59375 184.355469 334.949219 183.691406 335.234375 182.992188 C 335.523438 182.296875 335.742188 181.574219 335.890625 180.835938 C 336.035156 180.09375 336.109375 179.34375 336.109375 178.589844 C 336.109375 177.832031 336.035156 177.085938 335.890625 176.34375 C 335.742188 175.601562 335.523438 174.882812 335.234375 174.183594 C 334.949219 173.488281 334.59375 172.824219 334.175781 172.195312 C 333.757812 171.566406 333.28125 170.984375 332.75 170.449219 C 332.214844 169.917969 331.636719 169.4375 331.007812 169.019531 C 330.382812 168.601562 329.722656 168.246094 329.027344 167.957031 C 328.328125 167.667969 327.613281 167.449219 326.871094 167.300781 C 326.132812 167.152344 325.386719 167.078125 324.632812 167.078125 C 323.878906 167.078125 323.132812 167.152344 322.394531 167.300781 C 321.65625 167.449219 320.9375 167.667969 320.242188 167.957031 C 319.546875 168.246094 318.886719 168.601562 318.257812 169.019531 C 317.632812 169.4375 317.050781 169.917969 316.519531 170.449219 Z M 316.519531 170.449219 " fill-opacity="1" fill-rule="nonzero"/></svg>